<?xml version="1.0" encoding="iso-8859-1"?>
<!-- Uploaded to: SVG Repo, www.svgrepo.com, Generator: SVG Repo Mixer Tools -->
<svg version="1.1" id="Layer_1" xmlns="http://www.w3.org/2000/svg" xmlns:xlink="http://www.w3.org/1999/xlink" 
	 viewBox="0 0 512 512" xml:space="preserve">
<path style="fill:#6FAEE8;" d="M495.415,165.211C458.774,68.646,365.411,0,256,0C114.615,0,0,114.616,0,256
	c0,135.573,105.391,246.512,238.71,255.406L495.415,165.211z"/>
<path style="fill:#458FDE;" d="M512,256c0-31.973-5.879-62.57-16.585-90.789l-59.473-59.472l-155.523,63.834l-49.691-49.691
	l-9.973,130.552l-76.059,166.957l94.014,94.014C244.427,511.787,250.188,512,256,512C397.384,512,512,397.384,512,256z"/>
<path style="fill:#FFFFFF;" d="M205.682,129.855l-81.391,24.116c0,26.6,21.632,48.231,48.231,48.231
	c0,26.6,21.632,48.232,48.233,48.232l24.115,44.522v-92.753L205.682,129.855z"/>
<g>
	<path style="fill:#DDEFFB;" d="M196.638,105.739H76.059c0,26.6,21.632,48.232,48.232,48.232h72.348
		c0,26.528,21.704,48.233,48.232,48.233v-48.231C244.87,127.377,223.233,105.74,196.638,105.739z"/>
	<path style="fill:#DDEFFB;" d="M306.318,129.855l-39.188,72.348v92.753l24.116-44.522c26.6,0,48.232-21.632,48.232-48.232
		c26.6,0,48.232-21.632,48.232-48.231L306.318,129.855z"/>
</g>
<path style="fill:#9ACEF3;" d="M315.362,105.739h120.58c0,26.6-21.632,48.232-48.232,48.232h-72.348
	c0,26.528-21.704,48.233-48.232,48.233v-48.231C267.13,127.377,288.767,105.74,315.362,105.739z"/>
<polygon style="fill:#FFD652;" points="256,250.435 207.768,333.913 256,417.391 367.304,417.391 367.304,250.435 "/>
<rect x="144.696" y="250.435" style="fill:#F7EDBC;" width="111.304" height="166.957"/>
<g>
	<rect x="166.957" y="317.217" style="fill:#FFD652;" width="22.261" height="22.261"/>
	<rect x="189.217" y="272.696" style="fill:#FFD652;" width="22.261" height="22.261"/>
</g>
<polygon style="fill:#FDBA4C;" points="345.043,328.348 345.043,350.609 310.823,372.87 276.602,350.609 276.602,328.348 "/>
<rect x="276.602" y="350.609" style="fill:#FFFFFF;" width="68.441" height="44.522"/>
</svg>